<?xml version="1.0" standalone="no"?>
<!DOCTYPE svg PUBLIC "-//W3C//DTD SVG 20010904//EN"
 "http://www.w3.org/TR/2001/REC-SVG-20010904/DTD/svg10.dtd">
<svg version="1.0" xmlns="http://www.w3.org/2000/svg"
 width="700.000000pt" height="700.000000pt" viewBox="0 0 700.000000 700.000000"
 preserveAspectRatio="xMidYMid meet">
<metadata>
Created by potrace 1.14, written by Peter Selinger 2001-2017
</metadata>
<g transform="translate(0.000000,700.000000) scale(0.100000,-0.100000)"
fill="#000000" stroke="none">
<path d="M2095 5290 c-349 -39 -652 -259 -796 -576 -56 -123 -81 -242 -82
-389 -1 -178 27 -303 104 -455 20 -41 361 -536 756 -1100 589 -840 724 -1028
753 -1042 33 -17 124 -18 1481 -18 1110 0 1448 3 1457 12 7 7 12 22 12 35 0
15 -204 315 -545 800 l-544 777 97 31 c349 111 596 376 678 730 27 116 25 320
-4 438 -91 365 -364 637 -732 730 -122 30 -329 30 -454 -1 -278 -69 -520 -261
-646 -512 -141 -281 -142 -607 -3 -885 20 -38 265 -400 545 -803 281 -404 511
-741 512 -750 1 -16 -57 -17 -771 -20 l-773 -2 -29 27 c-31 29 -723 1014 -717
1020 2 2 36 13 77 24 338 93 604 369 691 715 31 126 31 331 -1 459 -29 118
-102 270 -180 373 -202 267 -556 419 -886 382z m243 -595 c64 -20 145 -77 191
-135 165 -208 90 -506 -157 -623 -61 -29 -76 -32 -162 -32 -86 0 -101 3 -162
32 -129 61 -214 170 -239 306 -47 253 174 495 430 470 29 -2 74 -11 99 -18z
m2334 -22 c91 -43 151 -100 194 -187 105 -214 8 -465 -216 -557 -78 -31 -212
-31 -290 0 -217 88 -319 338 -222 545 73 155 211 240 382 233 70 -2 97 -8 152
-34z"/>
</g>
</svg>
